<svg width="27" height="25" viewBox="0 0 27 25" fill="none" xmlns="http://www.w3.org/2000/svg">
<path d="M23.4155 13.5546C22.8414 19.7329 17.3746 24.2761 11.1963 23.7019C5.01811 23.1278 0.474928 17.661 1.04907 11.4828C1.54832 6.09085 5.81691 1.83473 11.1963 1.33548C8.32565 5.21716 9.14941 10.684 13.0311 13.5546C16.114 15.8262 20.3326 15.8262 23.4155 13.5546Z" stroke="white" stroke-width="2" stroke-linecap="round" stroke-linejoin="round"/>
<path d="M19.3216 8.63704C19.1968 8.53719 19.047 8.49975 18.8972 8.51223H16.5882L18.7599 6.09086L18.9721 5.8662L19.0969 5.70394C19.1344 5.65402 19.1593 5.59161 19.1843 5.54168C19.2093 5.47928 19.2217 5.41687 19.2217 5.34198C19.2342 5.17973 19.1593 5.02995 19.022 4.94258C18.8473 4.85521 18.6476 4.81777 18.4479 4.83025H15.727C15.5897 4.81777 15.4399 4.8677 15.3276 4.95506C15.2277 5.02995 15.1778 5.15476 15.1778 5.27958C15.1778 5.4668 15.2402 5.57913 15.365 5.62905C15.5398 5.67898 15.727 5.70394 15.9142 5.69146H17.6741C17.5992 5.79131 17.5118 5.91612 17.387 6.05342L16.9377 6.56515L16.3386 7.23914L15.6521 8.02546C15.4025 8.30005 15.2402 8.48727 15.1653 8.58712C15.0031 8.7993 15.028 9.08637 15.2153 9.27359C15.365 9.38592 15.5398 9.43584 15.7145 9.42336H18.9097C19.0595 9.43584 19.2093 9.38592 19.3341 9.29855C19.4214 9.21118 19.4714 9.09885 19.4714 8.97404C19.4714 8.83674 19.4214 8.72441 19.3216 8.63704Z" fill="white"/>
<path d="M26.5358 4.76785C26.3861 4.64304 26.1988 4.59312 26.0116 4.6056H23.1035L25.8244 1.57265L26.074 1.28558L26.2363 1.08588C26.2862 1.02347 26.3237 0.948583 26.3486 0.873695C26.3861 0.798808 26.3985 0.711439 26.3985 0.62407C26.4235 0.424369 26.3237 0.224669 26.1489 0.124819C25.9118 0.0374497 25.6621 -0.0124754 25.4125 5.8444e-06H22.0051C21.8304 -0.0124754 21.6432 0.0374497 21.5059 0.149781C21.3936 0.249631 21.3187 0.399407 21.3311 0.561663C21.3311 0.798808 21.406 0.936102 21.5683 0.986027C21.793 1.04843 22.0176 1.0734 22.2548 1.0734H24.4515C24.3641 1.19821 24.2393 1.34798 24.0895 1.52272L23.5154 2.17175L22.7665 2.99551L21.8803 3.98153C21.5683 4.33101 21.3686 4.55567 21.2812 4.668C21.069 4.93011 21.094 5.31703 21.3436 5.55417C21.5308 5.69147 21.7555 5.75387 21.9802 5.74139H25.9867C26.1864 5.76636 26.3736 5.71643 26.5358 5.6041C26.6482 5.50425 26.7231 5.35447 26.7106 5.19222C26.7231 5.02996 26.6606 4.88019 26.5358 4.76785Z" fill="white"/>
</svg>
